<?xml version="1.0" encoding="UTF-8" standalone="no"?>
<svg xmlns:dc="http://purl.org/dc/elements/1.1/" xmlns:cc="http://creativecommons.org/ns#" xmlns:rdf="http://www.w3.org/1999/02/22-rdf-syntax-ns#" xmlns:svg="http://www.w3.org/2000/svg" xmlns="http://www.w3.org/2000/svg" xmlns:sodipodi="http://sodipodi.sourceforge.net/DTD/sodipodi-0.dtd" xmlns:inkscape="http://www.inkscape.org/namespaces/inkscape" width="792.08545" height="87.599998" version="1.1" id="svg22" sodipodi:docname="SERVER 2012.svg" style="fill:#0078d6" inkscape:version="0.92.1 r15371">
  <metadata id="metadata28">
    <rdf:RDF>
      <cc:Work rdf:about="">
        <dc:format>image/svg+xml</dc:format>
        <dc:type rdf:resource="http://purl.org/dc/dcmitype/StillImage"/>
        <dc:title/>
      </cc:Work>
    </rdf:RDF>
  </metadata>
  <defs id="defs26"/>
  <sodipodi:namedview pagecolor="#ffffff" bordercolor="#666666" borderopacity="1" objecttolerance="10" gridtolerance="10" guidetolerance="10" inkscape:pageopacity="0" inkscape:pageshadow="2" inkscape:window-width="1600" inkscape:window-height="837" id="namedview24" showgrid="false" showguides="true" inkscape:guide-bbox="true" fit-margin-top="0" fit-margin-left="0" fit-margin-right="0" fit-margin-bottom="0" inkscape:zoom="0.2696216" inkscape:cx="-895.47325" inkscape:cy="-279.82627" inkscape:window-x="-8" inkscape:window-y="-8" inkscape:window-maximized="1" inkscape:current-layer="svg22"/>
  <path d="m 0,12.49 35.7,-4.9 v 34.5 H 0 M 40,6.91 87.3,0 V 41.8 H 40 M 0,45.74 h 35.7 v 34.6 L 0,75.34 M 40,46.2 H 87.3 V 87.6 L 40,80.9" id="path2" style="fill:#00188f;fill-opacity:1" inkscape:connector-curvature="0"/>
  <g aria-label="Windows Server 2016" style="font-style:normal;font-weight:normal;font-size:73.37268829px;line-height:1.25;font-family:sans-serif;letter-spacing:0px;word-spacing:0px;fill:#00188f;fill-opacity:1;stroke:none;stroke-width:1.83431709" id="text43">
    <path d="m 180.57007,18.328317 -14.50973,51.375212 h -7.05782 L 148.4337,32.157349 q -0.68071,-2.400376 -0.82401,-5.23067 h -0.14331 q -0.21496,2.651161 -0.93149,5.159017 l -10.64047,37.617833 h -6.98617 L 113.86112,18.328317 h 6.6279 l 10.92708,39.409159 q 0.68071,2.472029 0.85984,5.159017 h 0.17913 q 0.17914,-1.898805 1.11063,-5.159017 l 11.357,-39.409159 h 5.76807 l 10.89125,39.695771 q 0.57323,2.042111 0.85984,4.800752 h 0.14331 q 0.1433,-1.862979 0.96731,-4.944058 l 10.49717,-39.552465 z" style="font-style:normal;font-variant:normal;font-weight:normal;font-stretch:normal;font-family:'Segoe UI';-inkscape-font-specification:'Segoe UI';letter-spacing:-0.91000003px;fill:#00188f;fill-opacity:1;stroke-width:1.83431709" id="path98" inkscape:connector-curvature="0"/>
    <path d="m 189.47653,23.702293 q -1.57636,0 -2.68699,-1.074795 -1.11062,-1.074795 -1.11062,-2.722815 0,-1.648019 1.11062,-2.722814 1.11063,-1.110622 2.68699,-1.110622 1.61219,0 2.72282,1.110622 1.14644,1.074795 1.14644,2.722814 0,1.576367 -1.14644,2.686988 -1.11063,1.110622 -2.72282,1.110622 z m 2.86612,46.001236 h -5.87554 V 33.017185 h 5.87554 z" style="font-style:normal;font-variant:normal;font-weight:normal;font-stretch:normal;font-family:'Segoe UI';-inkscape-font-specification:'Segoe UI';letter-spacing:-0.91000003px;fill:#00188f;fill-opacity:1;stroke-width:1.83431709" id="path100" inkscape:connector-curvature="0"/>
    <path d="m 233.77958,69.703529 h -5.87554 v -20.92268 q 0,-11.679442 -8.52671,-11.679442 -4.40666,0 -7.30861,3.331865 -2.86612,3.296039 -2.86612,8.347577 v 20.92268 h -5.87555 V 33.017185 h 5.87555 v 6.090507 h 0.14331 q 4.15587,-6.950343 12.0377,-6.950343 6.01886,0 9.20742,3.905089 3.18855,3.869263 3.18855,11.213697 z" style="font-style:normal;font-variant:normal;font-weight:normal;font-stretch:normal;font-family:'Segoe UI';-inkscape-font-specification:'Segoe UI';letter-spacing:-0.91000003px;fill:#00188f;fill-opacity:1;stroke-width:1.83431709" id="path102" inkscape:connector-curvature="0"/>
    <path d="m 275.28817,69.703529 h -5.87555 v -6.233812 h -0.1433 q -4.08422,7.093649 -12.61093,7.093649 -6.91452,0 -11.07039,-4.908232 -4.12005,-4.944058 -4.12005,-13.434941 0,-9.099933 4.58579,-14.581388 4.58579,-5.481456 12.21684,-5.481456 7.55939,0 10.99874,5.9472 h 0.1433 V 15.390543 h 5.87555 z m -5.87555,-16.587673 v -5.409803 q 0,-4.442487 -2.93777,-7.523566 -2.93777,-3.08108 -7.45191,-3.08108 -5.37398,0 -8.45506,3.940916 -3.08108,3.940916 -3.08108,10.891258 0,6.341292 2.93777,10.031423 2.9736,3.654303 7.95349,3.654303 4.90823,0 7.95348,-3.546824 3.08108,-3.546824 3.08108,-8.956627 z" style="font-style:normal;font-variant:normal;font-weight:normal;font-stretch:normal;font-family:'Segoe UI';-inkscape-font-specification:'Segoe UI';letter-spacing:-0.91000003px;fill:#00188f;fill-opacity:1;stroke-width:1.83431709" id="path104" inkscape:connector-curvature="0"/>
    <path d="m 301.67798,70.563366 q -8.13262,0 -13.00502,-5.123191 -4.83658,-5.159017 -4.83658,-13.6499 0,-9.243239 5.05154,-14.438082 5.05153,-5.194844 13.6499,-5.194844 8.20427,0 12.79006,5.051538 4.62162,5.051537 4.62162,14.008164 0,8.777495 -4.97989,14.079818 -4.94405,5.266497 -13.29163,5.266497 z m 0.42992,-33.461959 q -5.66059,0 -8.95663,3.869263 -3.29604,3.833436 -3.29604,10.604646 0,6.520425 3.33187,10.282208 3.33186,3.761783 8.9208,3.761783 5.69641,0 8.74167,-3.69013 3.08108,-3.69013 3.08108,-10.497167 0,-6.878689 -3.08108,-10.604646 -3.04526,-3.725957 -8.74167,-3.725957 z" style="font-style:normal;font-variant:normal;font-weight:normal;font-stretch:normal;font-family:'Segoe UI';-inkscape-font-specification:'Segoe UI';letter-spacing:-0.91000003px;fill:#00188f;fill-opacity:1;stroke-width:1.83431709" id="path106" inkscape:connector-curvature="0"/>
    <path d="m 374.64223,33.017185 -10.99874,36.686344 h -6.0905 l -7.5594,-26.26083 q -0.42991,-1.504713 -0.57322,-3.403518 h -0.14331 q -0.10748,1.289754 -0.75235,3.331865 l -8.20427,26.332483 h -5.87555 L 323.33867,33.017185 h 6.16216 l 7.59522,27.586411 q 0.35827,1.253928 0.50157,3.296039 h 0.28661 q 0.10748,-1.576366 0.64488,-3.367692 l 8.45506,-27.514758 h 5.37397 l 7.59522,27.658064 q 0.35827,1.325581 0.5374,3.296039 h 0.28661 q 0.0717,-1.397234 0.60905,-3.296039 l 7.45192,-27.658064 z" style="font-style:normal;font-variant:normal;font-weight:normal;font-stretch:normal;font-family:'Segoe UI';-inkscape-font-specification:'Segoe UI';letter-spacing:-0.91000003px;fill:#00188f;fill-opacity:1;stroke-width:1.83431709" id="path108" inkscape:connector-curvature="0"/>
    <path d="m 378.31803,68.377949 v -6.305466 q 4.80075,3.546824 10.56882,3.546824 7.73852,0 7.73852,-5.159017 0,-1.468887 -0.6807,-2.472029 -0.64488,-1.038968 -1.79133,-1.827152 -1.11062,-0.788183 -2.65116,-1.397233 -1.50471,-0.644878 -3.26021,-1.325581 -2.4362,-0.967316 -4.29918,-1.934632 -1.82715,-1.003142 -3.08108,-2.221243 -1.2181,-1.253928 -1.86298,-2.830294 -0.60905,-1.576367 -0.60905,-3.690131 0,-2.579508 1.18228,-4.549966 1.18227,-2.006285 3.15273,-3.331865 1.97046,-1.361408 4.47831,-2.042111 2.54368,-0.680704 5.23067,-0.680704 4.76493,0 8.52671,1.648019 v 5.947201 q -4.04839,-2.651162 -9.31489,-2.651162 -1.64802,0 -2.9736,0.394092 -1.32558,0.358265 -2.2929,1.038968 -0.93149,0.680704 -1.46888,1.64802 -0.50158,0.931489 -0.50158,2.077937 0,1.433061 0.50158,2.400376 0.53739,0.967316 1.54054,1.719673 1.00314,0.752356 2.4362,1.361407 1.43306,0.609051 3.26021,1.325581 2.4362,0.931489 4.37083,1.934631 1.93464,0.967316 3.29604,2.221244 1.36141,1.218101 2.07794,2.830294 0.75236,1.612193 0.75236,3.833436 0,2.722815 -1.2181,4.729099 -1.18228,2.006285 -3.18856,3.331865 -2.00629,1.325581 -4.62162,1.970458 -2.61534,0.644878 -5.48146,0.644878 -5.66059,0 -9.81646,-2.185417 z" style="font-style:normal;font-variant:normal;font-weight:normal;font-stretch:normal;font-family:'Segoe UI';-inkscape-font-specification:'Segoe UI';letter-spacing:-0.91000003px;fill:#00188f;fill-opacity:1;stroke-width:1.83431709" id="path110" inkscape:connector-curvature="0"/>
    <path d="m 428.26732,67.625592 v -7.093649 q 1.2181,1.074796 2.90195,1.934632 1.71967,0.859836 3.58265,1.468887 1.8988,0.573224 3.79761,0.895662 1.8988,0.322439 3.511,0.322439 5.5531,0 8.27592,-2.042111 2.75864,-2.077938 2.75864,-5.9472 0,-2.077938 -0.93149,-3.618478 -0.89566,-1.54054 -2.50786,-2.794467 -1.61219,-1.289755 -3.83343,-2.436203 -2.18542,-1.182275 -4.7291,-2.472029 -2.68699,-1.361407 -5.01571,-2.758641 -2.32872,-1.397234 -4.0484,-3.08108 -1.71967,-1.683846 -2.72281,-3.79761 -0.96732,-2.14959 -0.96732,-5.015711 0,-3.510997 1.54054,-6.090506 1.54054,-2.615335 4.0484,-4.299181 2.50785,-1.683846 5.69641,-2.507856 3.22439,-0.824009 6.55625,-0.824009 7.59522,0 11.07039,1.827152 v 6.77121 Q 452.701,22.91411 445.57152,22.91411 q -1.97046,0 -3.94091,0.429918 -1.97046,0.394092 -3.511,1.325581 -1.54054,0.931489 -2.50786,2.400376 -0.96731,1.468887 -0.96731,3.582651 0,1.970458 0.71653,3.403518 0.75235,1.43306 2.18542,2.615335 1.43306,1.182275 3.47517,2.292897 2.07793,1.110621 4.76492,2.436202 2.75864,1.361407 5.23067,2.866121 2.47203,1.504713 4.33501,3.331865 1.86298,1.827152 2.93777,4.048395 1.11062,2.221244 1.11062,5.087364 0,3.79761 -1.50471,6.448772 -1.46889,2.615335 -4.01257,4.263354 -2.50785,1.64802 -5.80389,2.36455 -3.29604,0.752357 -6.95034,0.752357 -1.21811,0 -3.00943,-0.214959 -1.79133,-0.179133 -3.6543,-0.573225 -1.86298,-0.358265 -3.54683,-0.895662 -1.64802,-0.573224 -2.65116,-1.253928 z" style="font-style:normal;font-variant:normal;font-weight:normal;font-stretch:normal;font-family:'Segoe UI';-inkscape-font-specification:'Segoe UI';letter-spacing:-0.91000003px;fill:#00188f;fill-opacity:1;stroke-width:1.83431709" id="path112" inkscape:connector-curvature="0"/>
    <path d="m 497.43397,52.829244 h -25.90256 q 0.1433,6.126333 3.29604,9.458198 3.15273,3.331865 8.67001,3.331865 6.19799,0 11.39283,-4.084221 v 5.517282 q -4.83658,3.510998 -12.79006,3.510998 -7.77435,0 -12.21684,-4.979885 -4.44249,-5.015711 -4.44249,-14.079818 0,-8.562535 4.83658,-13.936511 4.8724,-5.409803 12.07353,-5.409803 7.20113,0 11.14205,4.657446 3.94091,4.657446 3.94091,12.933369 z m -6.01885,-4.979884 q -0.0358,-5.087365 -2.47203,-7.917659 -2.40038,-2.830294 -6.69956,-2.830294 -4.15587,0 -7.05782,2.9736 -2.90195,2.9736 -3.58265,7.774353 z" style="font-style:normal;font-variant:normal;font-weight:normal;font-stretch:normal;font-family:'Segoe UI';-inkscape-font-specification:'Segoe UI';letter-spacing:-0.91000003px;fill:#00188f;fill-opacity:1;stroke-width:1.83431709" id="path114" inkscape:connector-curvature="0"/>
    <path d="m 524.57614,38.964386 q -1.54054,-1.182275 -4.44248,-1.182275 -3.76179,0 -6.30547,3.546824 -2.50785,3.546824 -2.50785,9.673157 v 18.701437 h -5.87555 V 33.017185 h 5.87555 v 7.559393 h 0.1433 q 1.25393,-3.869262 3.83344,-6.018853 2.57951,-2.185417 5.76807,-2.185417 2.29289,0 3.51099,0.501571 z" style="font-style:normal;font-variant:normal;font-weight:normal;font-stretch:normal;font-family:'Segoe UI';-inkscape-font-specification:'Segoe UI';letter-spacing:-0.91000003px;fill:#00188f;fill-opacity:1;stroke-width:1.83431709" id="path116" inkscape:connector-curvature="0"/>
    <path d="m 558.88361,33.017185 -14.61722,36.686344 h -5.76806 L 524.59764,33.017185 h 6.44877 l 9.31489,26.654922 q 1.03897,2.937774 1.28976,5.123191 h 0.1433 q 0.35827,-2.758641 1.14645,-4.979885 l 9.74481,-26.798228 z" style="font-style:normal;font-variant:normal;font-weight:normal;font-stretch:normal;font-family:'Segoe UI';-inkscape-font-specification:'Segoe UI';letter-spacing:-0.91000003px;fill:#00188f;fill-opacity:1;stroke-width:1.83431709" id="path118" inkscape:connector-curvature="0"/>
    <path d="m 593.72844,52.829244 h -25.90257 q 0.14331,6.126333 3.29604,9.458198 3.15273,3.331865 8.67002,3.331865 6.19798,0 11.39282,-4.084221 v 5.517282 q -4.83657,3.510998 -12.79006,3.510998 -7.77435,0 -12.21684,-4.979885 -4.44248,-5.015711 -4.44248,-14.079818 0,-8.562535 4.83657,-13.936511 4.87241,-5.409803 12.07354,-5.409803 7.20113,0 11.14204,4.657446 3.94092,4.657446 3.94092,12.933369 z m -6.01886,-4.979884 q -0.0358,-5.087365 -2.47203,-7.917659 -2.40037,-2.830294 -6.69955,-2.830294 -4.15588,0 -7.05782,2.9736 -2.90195,2.9736 -3.58266,7.774353 z" style="font-style:normal;font-variant:normal;font-weight:normal;font-stretch:normal;font-family:'Segoe UI';-inkscape-font-specification:'Segoe UI';letter-spacing:-0.91000003px;fill:#00188f;fill-opacity:1;stroke-width:1.83431709" id="path120" inkscape:connector-curvature="0"/>
    <path d="m 620.87061,38.964386 q -1.54054,-1.182275 -4.44249,-1.182275 -3.76178,0 -6.30546,3.546824 -2.50786,3.546824 -2.50786,9.673157 v 18.701437 h -5.87555 V 33.017185 h 5.87555 v 7.559393 h 0.14331 q 1.25392,-3.869262 3.83343,-6.018853 2.57951,-2.185417 5.76807,-2.185417 2.2929,0 3.511,0.501571 z" style="font-style:normal;font-variant:normal;font-weight:normal;font-stretch:normal;font-family:'Segoe UI';-inkscape-font-specification:'Segoe UI';letter-spacing:-0.91000003px;fill:#00188f;fill-opacity:1;stroke-width:1.83431709" id="path122" inkscape:connector-curvature="0"/>
    <path d="m 667.20146,31.799084 q 0,-2.36455 -0.75236,-4.120048 -0.71653,-1.755499 -2.00628,-2.901948 -1.25393,-1.182274 -2.9736,-1.755499 -1.71967,-0.573224 -3.72596,-0.573224 -1.71967,0 -3.36769,0.465745 -1.64802,0.465745 -3.22439,1.289754 -1.54054,0.82401 -3.00942,1.970458 -1.43306,1.146448 -2.68699,2.543682 v -6.305465 q 2.47203,-2.400376 5.51728,-3.654304 3.08108,-1.289754 7.48774,-1.289754 3.15273,0 5.83972,0.931489 2.68699,0.895663 4.65745,2.651162 1.97046,1.755498 3.08108,4.335007 1.14645,2.579509 1.14645,5.911374 0,3.045253 -0.71653,5.517282 -0.68071,2.472029 -2.11377,4.657446 -1.39723,2.185417 -3.54682,4.191702 -2.14959,2.006284 -5.05154,4.084221 -3.61848,2.579509 -5.98303,4.406661 -2.32872,1.827152 -3.72595,3.439345 -1.36141,1.576366 -1.93463,3.188559 -0.5374,1.576366 -0.5374,3.654304 h 25.58012 v 5.266496 h -31.70645 v -2.543682 q 0,-3.296038 0.71653,-5.803894 0.71653,-2.507856 2.36455,-4.764926 1.64801,-2.25707 4.29918,-4.51414 2.68698,-2.25707 6.55625,-5.087364 2.79446,-2.006284 4.65744,-3.833436 1.89881,-1.827152 3.04526,-3.654304 1.14644,-1.827152 1.61219,-3.69013 0.50157,-1.898805 0.50157,-4.012569 z" style="font-style:normal;font-variant:normal;font-weight:normal;font-stretch:normal;font-family:'Segoe UI';-inkscape-font-specification:'Segoe UI';letter-spacing:-0.91000003px;fill:#00188f;fill-opacity:1;stroke-width:1.83431709" id="path124" inkscape:connector-curvature="0"/>
    <path d="m 714.72889,43.800964 q 0,6.448772 -1.18227,11.428656 -1.14645,4.979885 -3.3677,8.41923 -2.18541,3.403518 -5.4098,5.194843 -3.18856,1.755499 -7.27278,1.755499 -3.86926,0 -6.91452,-1.683846 -3.00942,-1.719672 -5.08736,-4.979884 -2.07794,-3.260213 -3.15273,-7.989312 -1.0748,-4.764925 -1.0748,-10.891258 0,-6.735384 1.11062,-11.894401 1.14645,-5.159017 3.33187,-8.634188 2.18542,-3.510998 5.4098,-5.266497 3.26021,-1.791325 7.45192,-1.791325 16.15775,0 16.15775,26.332483 z m -6.01885,0.573224 q 0,-21.925823 -10.42552,-21.925823 -10.99873,0 -10.99873,22.319915 0,20.815201 10.78377,20.815201 10.64048,0 10.64048,-21.209293 z" style="font-style:normal;font-variant:normal;font-weight:normal;font-stretch:normal;font-family:'Segoe UI';-inkscape-font-specification:'Segoe UI';letter-spacing:-0.91000003px;fill:#00188f;fill-opacity:1;stroke-width:1.83431709" id="path126" inkscape:connector-curvature="0"/>
    <path d="m 742.7667,69.703529 h -5.87555 V 25.314486 q -0.6807,0.680704 -2.00628,1.576366 -1.28976,0.859837 -2.93778,1.719673 -1.61219,0.859836 -3.43934,1.612193 -1.79133,0.752356 -3.511,1.182274 v -5.9472 q 1.93463,-0.537398 4.08422,-1.43306 2.18542,-0.931489 4.26336,-2.042111 2.11376,-1.146448 3.97674,-2.36455 1.86298,-1.253928 3.22439,-2.436202 h 2.22124 z" style="font-style:normal;font-variant:normal;font-weight:normal;font-stretch:normal;font-family:'Segoe UI';-inkscape-font-specification:'Segoe UI';letter-spacing:-0.91000003px;fill:#00188f;fill-opacity:1;stroke-width:1.83431709" id="path128" inkscape:connector-curvature="0"/>
    <path d="m 792.08546,53.402468 q 0,3.761784 -1.21811,6.914516 -1.2181,3.152733 -3.36769,5.445629 -2.14959,2.292897 -5.12319,3.582651 -2.9736,1.253928 -6.44877,1.253928 -3.86926,0 -6.95034,-1.612193 -3.04526,-1.612193 -5.19485,-4.621619 -2.11376,-3.045254 -3.22438,-7.416087 -1.11062,-4.370834 -1.11062,-9.85229 0,-6.699557 1.46888,-12.145186 1.50472,-5.481456 4.22753,-9.350719 2.75864,-3.905089 6.62791,-6.018853 3.86926,-2.113764 8.63418,-2.113764 5.30233,0 8.52671,1.468887 v 5.553108 q -3.97674,-2.042111 -8.3834,-2.042111 -3.43935,0 -6.19799,1.54054 -2.75864,1.54054 -4.7291,4.370834 -1.97045,2.794468 -3.04525,6.77121 -1.03897,3.976743 -1.03897,8.849148 h 0.14331 q 3.54682,-6.412945 11.71527,-6.412945 3.36769,0 6.05468,1.146448 2.72281,1.146448 4.62162,3.260212 1.93463,2.077938 2.9736,4.979885 1.03897,2.901947 1.03897,6.448771 z m -6.01886,0.752357 q 0,-2.686988 -0.6807,-4.836579 -0.68071,-2.14959 -1.97046,-3.654303 -1.25393,-1.504714 -3.11691,-2.292897 -1.86297,-0.82401 -4.22752,-0.82401 -2.18542,0 -4.0484,0.82401 -1.86298,0.82401 -3.22438,2.25707 -1.36141,1.397234 -2.1496,3.296039 -0.75235,1.862978 -0.75235,3.976742 0,2.651162 0.75235,4.979885 0.75236,2.292896 2.11377,4.012569 1.36141,1.719672 3.22438,2.722814 1.89881,0.967316 4.19171,0.967316 2.22124,0 4.04839,-0.82401 1.82715,-0.859836 3.11691,-2.364549 1.28975,-1.504714 2.00628,-3.582651 0.71653,-2.113764 0.71653,-4.657446 z" style="font-style:normal;font-variant:normal;font-weight:normal;font-stretch:normal;font-family:'Segoe UI';-inkscape-font-specification:'Segoe UI';letter-spacing:-0.91000003px;fill:#00188f;fill-opacity:1;stroke-width:1.83431709" id="path130" inkscape:connector-curvature="0"/>
  </g>
</svg>